<svg xmlns="http://www.w3.org/2000/svg" width="417" height="130" viewBox="0 0 417 130" fill="none"><path d="M368.254 22.6769C368.254 15.6218 370.45 10.0786 374.842 6.04716C379.233 2.01572 385.496 0 393.631 0C396.367 0 399.102 0.359951 401.838 1.07985C404.645 1.79975 407.129 2.69963 409.289 3.77948L406.049 10.7985C404.681 10.0066 402.99 9.28672 400.974 8.6388C398.958 7.91891 396.87 7.55895 394.711 7.55895C393.199 7.55895 391.759 7.84691 390.391 8.42284C389.024 8.99876 387.8 9.89863 386.72 11.1225C385.712 12.2743 384.884 13.8221 384.236 15.7658C383.66 17.7096 383.372 20.0132 383.372 22.6769V23.7567H400.11V31.3157H383.372V77.7493H368.254V31.3157H357.996V23.7567H368.254V22.6769Z" fill="#DB8181"></path><path d="M288.839 21.5971H303.957V55.6124C303.957 60.7957 305.253 64.5392 307.844 66.8429C310.436 69.0745 314.179 70.1904 319.075 70.1904H333.113V21.5971H348.231V77.7494H319.075C308.78 77.7494 301.149 75.9136 296.182 72.2421C291.287 68.4986 288.839 62.9554 288.839 55.6124V21.5971Z" fill="#DB8181"></path><path d="M207.901 29.1561H194.943C190.047 29.1561 186.304 30.4879 183.712 33.1515C181.12 35.7432 179.825 39.6306 179.825 44.8139V77.7494H164.707V44.8139C164.707 37.4709 167.01 31.7837 171.618 27.7523C176.297 23.6488 182.992 21.5971 191.703 21.5971H207.901V29.1561Z" fill="#DB8181"></path><path d="M90.6906 21.5971H105.809V55.6124C105.809 60.7957 107.104 64.5392 109.696 66.8429C112.288 69.0745 116.031 70.1904 120.926 70.1904H134.964V21.5971H150.082V77.7494H120.926C110.632 77.7494 103.001 75.9136 98.0336 72.2421C93.1383 68.4986 90.6906 62.9554 90.6906 55.6124V21.5971Z" fill="#DB8181"></path><path d="M75.5896 2.15979V77.7494H59.9317V44.8139H15.6578V77.7494H0V2.15979H15.6578V36.715H59.9317V2.15979H75.5896Z" fill="#DB8181"></path><path d="M20.1215 115.92L18.3659 111.085H8.6639L6.9083 115.92H3.8591L11.8979 94.3602H15.1319L23.1707 115.92H20.1215ZM9.6495 108.405H17.3803L13.4995 97.779L9.6495 108.405ZM28.1165 103.107C28.9994 101.198 30.601 100.243 32.9213 100.243V103.046C31.6072 102.984 30.4778 103.333 29.5333 104.093C28.5888 104.853 28.1165 106.074 28.1165 107.758V115.92H25.4369V100.52H28.1165V103.107ZM47.4522 100.52H50.1318V115.92H47.4522V113.271C46.1175 115.304 44.1771 116.321 41.631 116.321C39.475 116.321 37.6372 115.54 36.1178 113.98C34.5983 112.399 33.8386 110.479 33.8386 108.22C33.8386 105.961 34.5983 104.052 36.1178 102.491C37.6372 100.91 39.475 100.12 41.631 100.12C44.1771 100.12 46.1175 101.136 47.4522 103.169V100.52ZM41.9698 113.733C43.5303 113.733 44.8342 113.21 45.8814 112.163C46.9286 111.095 47.4522 109.781 47.4522 108.22C47.4522 106.66 46.9286 105.356 45.8814 104.309C44.8342 103.241 43.5303 102.707 41.9698 102.707C40.4298 102.707 39.1362 103.241 38.089 104.309C37.0418 105.356 36.5182 106.66 36.5182 108.22C36.5182 109.781 37.0418 111.095 38.089 112.163C39.1362 113.21 40.4298 113.733 41.9698 113.733ZM62.6924 100.12C64.8484 100.12 66.6861 100.91 68.2056 102.491C69.7251 104.052 70.4848 105.961 70.4848 108.22C70.4848 110.479 69.7251 112.399 68.2056 113.98C66.6861 115.54 64.8484 116.321 62.6924 116.321C60.1463 116.321 58.2059 115.304 56.8712 113.271V115.92H54.1916V94.3602H56.8712V103.169C58.2059 101.136 60.1463 100.12 62.6924 100.12ZM62.3536 113.733C63.8936 113.733 65.1872 113.21 66.2344 112.163C67.2816 111.095 67.8052 109.781 67.8052 108.22C67.8052 106.66 67.2816 105.356 66.2344 104.309C65.1872 103.241 63.8936 102.707 62.3536 102.707C60.7931 102.707 59.4892 103.241 58.442 104.309C57.3948 105.356 56.8712 106.66 56.8712 108.22C56.8712 109.781 57.3948 111.095 58.442 112.163C59.4892 113.21 60.7931 113.733 62.3536 113.733ZM75.0374 97.7174C74.5241 97.7174 74.0929 97.5428 73.7438 97.1938C73.3948 96.8447 73.2202 96.4238 73.2202 95.931C73.2202 95.4382 73.3948 95.0172 73.7438 94.6682C74.0929 94.2986 74.5241 94.1138 75.0374 94.1138C75.5302 94.1138 75.9512 94.2986 76.3002 94.6682C76.6493 95.0172 76.8238 95.4382 76.8238 95.931C76.8238 96.4238 76.6493 96.8447 76.3002 97.1938C75.9512 97.5428 75.5302 97.7174 75.0374 97.7174ZM73.6822 115.92V100.52H76.3618V115.92H73.6822ZM87.6878 116.321C85.3675 116.321 83.4374 115.551 81.8974 114.011C80.3574 112.45 79.5874 110.52 79.5874 108.22C79.5874 105.92 80.3574 104.001 81.8974 102.461C83.4374 100.9 85.3675 100.12 87.6878 100.12C89.2073 100.12 90.5727 100.489 91.7842 101.229C92.9957 101.947 93.8991 102.923 94.4946 104.155L92.2462 105.448C91.8561 104.627 91.2503 103.97 90.429 103.477C89.6282 102.984 88.7145 102.738 87.6878 102.738C86.1478 102.738 84.8542 103.261 83.807 104.309C82.7803 105.356 82.267 106.66 82.267 108.22C82.267 109.76 82.7803 111.054 83.807 112.101C84.8542 113.148 86.1478 113.672 87.6878 113.672C88.7145 113.672 89.6385 113.436 90.4598 112.963C91.2811 112.471 91.9074 111.813 92.3386 110.992L94.6178 112.317C93.9607 113.528 93.0162 114.503 91.7842 115.243C90.5522 115.961 89.1867 116.321 87.6878 116.321ZM108.135 113.21H117.437V115.92H105.271V94.3602H108.135V113.21ZM121.31 109.452C121.577 110.828 122.203 111.896 123.189 112.655C124.195 113.415 125.427 113.795 126.885 113.795C128.917 113.795 130.396 113.045 131.32 111.547L133.599 112.84C132.1 115.16 129.841 116.321 126.823 116.321C124.38 116.321 122.388 115.561 120.848 114.041C119.328 112.501 118.569 110.561 118.569 108.22C118.569 105.9 119.318 103.97 120.817 102.43C122.316 100.89 124.256 100.12 126.638 100.12C128.897 100.12 130.735 100.921 132.151 102.522C133.589 104.103 134.307 106.013 134.307 108.251C134.307 108.641 134.277 109.041 134.215 109.452H121.31ZM126.638 102.645C125.201 102.645 124.01 103.056 123.065 103.877C122.121 104.678 121.536 105.756 121.31 107.111H131.597C131.371 105.653 130.796 104.545 129.872 103.785C128.948 103.025 127.87 102.645 126.638 102.645ZM150.109 100.52H152.788V115.92H150.109V113.271C148.774 115.304 146.834 116.321 144.288 116.321C142.132 116.321 140.294 115.54 138.774 113.98C137.255 112.399 136.495 110.479 136.495 108.22C136.495 105.961 137.255 104.052 138.774 102.491C140.294 100.91 142.132 100.12 144.288 100.12C146.834 100.12 148.774 101.136 150.109 103.169V100.52ZM144.626 113.733C146.187 113.733 147.491 113.21 148.538 112.163C149.585 111.095 150.109 109.781 150.109 108.22C150.109 106.66 149.585 105.356 148.538 104.309C147.491 103.241 146.187 102.707 144.626 102.707C143.086 102.707 141.793 103.241 140.746 104.309C139.698 105.356 139.175 106.66 139.175 108.22C139.175 109.781 139.698 111.095 140.746 112.163C141.793 113.21 143.086 113.733 144.626 113.733ZM159.528 103.107C160.411 101.198 162.012 100.243 164.333 100.243V103.046C163.018 102.984 161.889 103.333 160.945 104.093C160 104.853 159.528 106.074 159.528 107.758V115.92H156.848V100.52H159.528V103.107ZM174.624 100.12C176.431 100.12 177.878 100.695 178.966 101.845C180.055 102.974 180.599 104.514 180.599 106.465V115.92H177.919V106.619C177.919 105.366 177.58 104.401 176.903 103.723C176.225 103.025 175.291 102.676 174.1 102.676C172.765 102.676 171.687 103.097 170.866 103.939C170.045 104.76 169.634 106.033 169.634 107.758V115.92H166.954V100.52H169.634V102.738C170.722 100.992 172.386 100.12 174.624 100.12ZM185.695 97.7174C185.182 97.7174 184.75 97.5428 184.401 97.1938C184.052 96.8447 183.878 96.4238 183.878 95.931C183.878 95.4382 184.052 95.0172 184.401 94.6682C184.75 94.2986 185.182 94.1138 185.695 94.1138C186.188 94.1138 186.609 94.2986 186.958 94.6682C187.307 95.0172 187.481 95.4382 187.481 95.931C187.481 96.4238 187.307 96.8447 186.958 97.1938C186.609 97.5428 186.188 97.7174 185.695 97.7174ZM184.34 115.92V100.52H187.019V115.92H184.34ZM198.776 100.12C200.583 100.12 202.031 100.695 203.119 101.845C204.207 102.974 204.752 104.514 204.752 106.465V115.92H202.072V106.619C202.072 105.366 201.733 104.401 201.056 103.723C200.378 103.025 199.444 102.676 198.253 102.676C196.918 102.676 195.84 103.097 195.019 103.939C194.197 104.76 193.787 106.033 193.787 107.758V115.92H191.107V100.52H193.787V102.738C194.875 100.992 196.538 100.12 198.776 100.12ZM221.274 100.52H223.923V115.273C223.923 117.553 223.153 119.318 221.613 120.571C220.073 121.844 218.225 122.481 216.069 122.481C214.344 122.481 212.856 122.152 211.603 121.495C210.351 120.858 209.406 119.934 208.77 118.723L211.11 117.399C211.952 119.123 213.626 119.986 216.131 119.986C217.732 119.986 218.985 119.565 219.888 118.723C220.812 117.881 221.274 116.731 221.274 115.273V113.087C219.919 115.14 217.989 116.167 215.484 116.167C213.287 116.167 211.429 115.386 209.909 113.826C208.39 112.265 207.63 110.366 207.63 108.128C207.63 105.89 208.39 104.001 209.909 102.461C211.429 100.9 213.287 100.12 215.484 100.12C218.01 100.12 219.94 101.136 221.274 103.169V100.52ZM211.88 112.039C212.928 113.087 214.231 113.61 215.792 113.61C217.353 113.61 218.656 113.087 219.704 112.039C220.751 110.992 221.274 109.688 221.274 108.128C221.274 106.588 220.751 105.294 219.704 104.247C218.656 103.2 217.353 102.676 215.792 102.676C214.231 102.676 212.928 103.2 211.88 104.247C210.833 105.294 210.31 106.588 210.31 108.128C210.31 109.688 210.833 110.992 211.88 112.039ZM244.184 100.12C246.34 100.12 248.178 100.91 249.697 102.491C251.216 104.052 251.976 105.961 251.976 108.22C251.976 110.479 251.216 112.399 249.697 113.98C248.178 115.54 246.34 116.321 244.184 116.321C241.638 116.321 239.697 115.304 238.363 113.271V122.08H235.683V100.52H238.363V103.169C239.697 101.136 241.638 100.12 244.184 100.12ZM243.845 113.733C245.385 113.733 246.679 113.21 247.726 112.163C248.773 111.095 249.297 109.781 249.297 108.22C249.297 106.66 248.773 105.356 247.726 104.309C246.679 103.241 245.385 102.707 243.845 102.707C242.284 102.707 240.981 103.241 239.933 104.309C238.886 105.356 238.363 106.66 238.363 108.22C238.363 109.781 238.886 111.095 239.933 112.163C240.981 113.21 242.284 113.733 243.845 113.733ZM255.174 115.92V93.4362H257.853V115.92H255.174ZM274.692 100.52H277.372V115.92H274.692V113.271C273.358 115.304 271.417 116.321 268.871 116.321C266.715 116.321 264.877 115.54 263.358 113.98C261.839 112.399 261.079 110.479 261.079 108.22C261.079 105.961 261.839 104.052 263.358 102.491C264.877 100.91 266.715 100.12 268.871 100.12C271.417 100.12 273.358 101.136 274.692 103.169V100.52ZM269.21 113.733C270.771 113.733 272.074 113.21 273.122 112.163C274.169 111.095 274.692 109.781 274.692 108.22C274.692 106.66 274.169 105.356 273.122 104.309C272.074 103.241 270.771 102.707 269.21 102.707C267.67 102.707 266.376 103.241 265.329 104.309C264.282 105.356 263.758 106.66 263.758 108.22C263.758 109.781 264.282 111.095 265.329 112.163C266.376 113.21 267.67 113.733 269.21 113.733ZM289.809 103.107H285.713V111.454C285.713 112.214 285.857 112.758 286.144 113.087C286.452 113.395 286.914 113.559 287.53 113.579C288.146 113.579 288.906 113.559 289.809 113.518V115.92C287.469 116.228 285.754 116.043 284.666 115.366C283.578 114.668 283.033 113.364 283.033 111.454V103.107H279.984V100.52H283.033V97.009L285.713 96.2082V100.52H289.809V103.107ZM294.079 109.452C294.346 110.828 294.972 111.896 295.957 112.655C296.964 113.415 298.196 113.795 299.653 113.795C301.686 113.795 303.165 113.045 304.089 111.547L306.368 112.84C304.869 115.16 302.61 116.321 299.592 116.321C297.148 116.321 295.157 115.561 293.617 114.041C292.097 112.501 291.337 110.561 291.337 108.22C291.337 105.9 292.087 103.97 293.586 102.43C295.085 100.89 297.025 100.12 299.407 100.12C301.666 100.12 303.503 100.921 304.92 102.522C306.358 104.103 307.076 106.013 307.076 108.251C307.076 108.641 307.045 109.041 306.984 109.452H294.079ZM299.407 102.645C297.97 102.645 296.779 103.056 295.834 103.877C294.89 104.678 294.304 105.756 294.079 107.111H304.366C304.14 105.653 303.565 104.545 302.641 103.785C301.717 103.025 300.639 102.645 299.407 102.645ZM317.621 96.547C314.91 96.3211 313.555 97.4915 313.555 100.058V100.52H317.621V103.107H313.555V115.92H310.876V103.107H308.412V100.52H310.876V100.058C310.876 97.9843 311.451 96.4135 312.6 95.3458C313.771 94.278 315.444 93.816 317.621 93.9598V96.547ZM331.817 113.98C330.235 115.54 328.316 116.321 326.057 116.321C323.798 116.321 321.878 115.54 320.297 113.98C318.737 112.419 317.957 110.499 317.957 108.22C317.957 105.941 318.737 104.021 320.297 102.461C321.878 100.9 323.798 100.12 326.057 100.12C328.316 100.12 330.235 100.9 331.817 102.461C333.398 104.021 334.188 105.941 334.188 108.22C334.188 110.499 333.398 112.419 331.817 113.98ZM326.057 113.703C327.597 113.703 328.891 113.179 329.938 112.132C330.985 111.085 331.509 109.781 331.509 108.22C331.509 106.66 330.985 105.356 329.938 104.309C328.891 103.261 327.597 102.738 326.057 102.738C324.537 102.738 323.254 103.261 322.207 104.309C321.16 105.356 320.636 106.66 320.636 108.22C320.636 109.781 321.16 111.085 322.207 112.132C323.254 113.179 324.537 113.703 326.057 113.703ZM340.027 103.107C340.91 101.198 342.511 100.243 344.831 100.243V103.046C343.517 102.984 342.388 103.333 341.443 104.093C340.499 104.853 340.027 106.074 340.027 107.758V115.92H337.347V100.52H340.027V103.107ZM364.085 100.12C365.81 100.12 367.206 100.684 368.274 101.814C369.342 102.923 369.876 104.432 369.876 106.341V115.92H367.196V106.434C367.196 105.243 366.888 104.319 366.272 103.662C365.656 103.005 364.835 102.676 363.808 102.676C362.658 102.676 361.734 103.066 361.036 103.847C360.359 104.606 360.02 105.777 360.02 107.358V115.92H357.34V106.434C357.34 105.243 357.042 104.319 356.447 103.662C355.872 103.005 355.081 102.676 354.075 102.676C352.946 102.676 352.001 103.066 351.242 103.847C350.503 104.627 350.133 105.797 350.133 107.358V115.92H347.453V100.52H350.133V102.584C351.18 100.941 352.71 100.12 354.722 100.12C356.796 100.12 358.305 100.992 359.25 102.738C360.317 100.992 361.929 100.12 364.085 100.12ZM375.47 109.452C375.737 110.828 376.363 111.896 377.349 112.655C378.355 113.415 379.587 113.795 381.045 113.795C383.078 113.795 384.556 113.045 385.48 111.547L387.759 112.84C386.26 115.16 384.002 116.321 380.983 116.321C378.54 116.321 376.548 115.561 375.008 114.041C373.489 112.501 372.729 110.561 372.729 108.22C372.729 105.9 373.478 103.97 374.977 102.43C376.476 100.89 378.417 100.12 380.798 100.12C383.057 100.12 384.895 100.921 386.312 102.522C387.749 104.103 388.468 106.013 388.468 108.251C388.468 108.641 388.437 109.041 388.375 109.452H375.47ZM380.798 102.645C379.361 102.645 378.17 103.056 377.226 103.877C376.281 104.678 375.696 105.756 375.47 107.111H385.757C385.531 105.653 384.956 104.545 384.032 103.785C383.108 103.025 382.03 102.645 380.798 102.645Z" fill="#263238"></path><g clip-path="url(#clip0_6_2)"><ellipse cx="247.51" cy="47.2155" rx="31.6508" ry="31.6508" fill="#E38989"></ellipse></g><path d="M253.833 73.9842C238.304 73.9842 225.724 61.4832 225.724 46.0684C225.724 30.6536 238.312 18.1447 253.833 18.1447C257.46 18.1447 260.931 18.834 264.117 20.0794C258.801 16.5234 252.397 14.4477 245.504 14.4477C227.073 14.4477 212.136 29.2829 212.136 47.5879C212.136 65.893 227.073 80.7282 245.504 80.7282C256.751 80.7282 266.696 75.1905 272.737 66.7233C267.745 71.2349 261.112 73.9764 253.833 73.9764V73.9842Z" fill="#BA6666"></path><path d="M262.891 11.0868L264.742 17.068C264.811 17.2857 265.003 17.4308 265.218 17.4308H271.211C271.695 17.4308 271.902 18.0837 271.503 18.3819L266.655 22.0819C266.478 22.219 266.402 22.4527 266.471 22.6704L268.322 28.6516C268.476 29.1352 267.946 29.5383 267.546 29.24L262.699 25.5401C262.522 25.403 262.284 25.403 262.107 25.5401L257.259 29.24C256.868 29.5383 256.338 29.1352 256.484 28.6516L258.335 22.6704C258.404 22.4527 258.335 22.2109 258.151 22.0819L253.303 18.3819C252.911 18.0837 253.111 17.4308 253.595 17.4308H259.587C259.802 17.4308 259.994 17.2857 260.064 17.068L261.915 11.0868C262.069 10.6031 262.722 10.6031 262.868 11.0868H262.891Z" fill="#263238"></path><path d="M236.631 25.8362L237.742 29.4249C237.783 29.5555 237.898 29.6425 238.028 29.6425H241.623C241.913 29.6425 242.038 30.0343 241.798 30.2133L238.89 32.4332C238.783 32.5155 238.737 32.6557 238.779 32.7863L239.89 36.375C239.982 36.6652 239.664 36.9071 239.424 36.7281L236.516 34.5081C236.41 34.4259 236.267 34.4259 236.161 34.5081L233.252 36.7281C233.017 36.9071 232.699 36.6652 232.787 36.375L233.897 32.7863C233.939 32.6557 233.897 32.5106 233.787 32.4332L230.878 30.2133C230.643 30.0343 230.763 29.6425 231.053 29.6425H234.649C234.778 29.6425 234.893 29.5555 234.935 29.4249L236.045 25.8362C236.138 25.546 236.529 25.546 236.617 25.8362H236.631Z" fill="#263238"></path><path d="M270.143 63.0724L271.254 66.6612C271.296 66.7918 271.411 66.8788 271.54 66.8788H275.136C275.426 66.8788 275.55 67.2706 275.311 67.4495L272.402 69.6695C272.296 69.7517 272.25 69.892 272.291 70.0226L273.402 73.6113C273.495 73.9015 273.176 74.1433 272.937 73.9644L270.028 71.7444C269.922 71.6622 269.779 71.6622 269.673 71.7444L266.765 73.9644C266.53 74.1433 266.212 73.9015 266.299 73.6113L267.41 70.0226C267.452 69.892 267.41 69.7469 267.299 69.6695L264.391 67.4495C264.156 67.2706 264.276 66.8788 264.566 66.8788H268.161C268.29 66.8788 268.406 66.7918 268.447 66.6612L269.558 63.0724C269.65 62.7822 270.042 62.7822 270.13 63.0724H270.143Z" fill="#263238"></path><defs><clipPath id="clip0_6_2"><rect width="70.7488" height="67.0252" fill="white" transform="translate(219.583 15.5647)"></rect></clipPath></defs></svg>