<svg width="201" height="200" viewBox="0 0 201 200" fill="none" xmlns="http://www.w3.org/2000/svg">
<mask id="mask0_70_3" style="mask-type:luminance" maskUnits="userSpaceOnUse" x="0" y="0" width="201" height="200">
<path d="M201 0H0V199.807H201V0Z" fill="white"/>
</mask>
<g mask="url(#mask0_70_3)">
<path d="M115.486 178.672C115.486 178.672 140.945 126.278 143.374 118.508C145.803 110.726 147.218 108.695 150.282 108.817C153.346 108.939 156.678 110.86 155.274 112.391C155.274 112.391 159.63 110.993 160.521 112.769C161.413 114.556 159.496 117.231 159.496 117.231C159.496 117.231 161.736 118.985 161.257 121.472C160.778 123.958 159.53 123.481 159.53 123.481C159.53 123.481 160.934 126.911 157.424 129.12C155.34 130.43 151.285 127.21 151.285 127.21L121.636 180.47L115.497 178.683L115.486 178.672Z" fill="#FFA585"/>
<path d="M150.07 140.753C148.978 148.224 148.009 155.206 147.185 161.189C146.394 167.172 145.736 172.167 145.268 175.664C144.834 179.161 144.589 181.159 144.589 181.159C144.511 181.791 144.956 182.357 145.591 182.435C146.193 182.513 146.75 182.102 146.861 181.514C146.861 181.514 147.24 179.538 147.92 176.075C148.566 172.611 149.48 167.661 150.583 161.722C151.652 155.772 152.889 148.845 154.159 141.397C155.006 136.579 155.697 132.439 156.544 127.344C155.017 126.878 153.747 125.779 152.432 124.857C151.575 130.552 150.839 135.381 150.081 140.753H150.07Z" fill="#E0A326"/>
<path d="M166.014 53.0268C165.424 52.9713 164.9 53.3598 164.778 53.9259C164.778 53.9259 164.666 54.4143 164.466 55.3356C164.254 56.257 163.964 57.6112 163.597 59.3429C163.24 61.0745 162.817 63.1725 162.326 65.5702C161.87 67.979 161.313 70.6986 160.778 73.6735C160.232 76.6484 159.63 79.8564 159.051 83.2753C158.761 84.9848 158.449 86.7275 158.137 88.5258C157.847 90.313 157.547 92.1445 157.235 94.0094C156.366 99.2266 155.53 104.688 154.672 110.238C157.067 112.125 153.981 112.769 154.237 113.035C156.276 112.48 157.547 112.036 159.084 111.925C159.998 106.264 161.001 100.07 161.814 94.7309C162.104 92.866 162.382 91.0345 162.661 89.2362C162.917 87.438 163.173 85.6841 163.418 83.9635C163.92 80.5446 164.343 77.2922 164.755 74.3062C165.168 71.3091 165.48 68.5673 165.792 66.1252C166.07 63.6831 166.315 61.563 166.516 59.8091C166.705 58.0552 166.85 56.6788 166.928 55.7352C167.017 54.7917 167.062 54.2922 167.062 54.2922C167.117 53.6595 166.661 53.0934 166.026 53.0379L166.014 53.0268Z" fill="#E0A326"/>
<path d="M150.371 114.811C152.6 114.423 154.728 113.557 155.82 111.415C155.853 111.359 155.775 111.281 155.719 111.337C153.636 113.568 150.873 114.145 147.953 114.412C147.53 114.445 147.519 115.111 147.953 115.078C148.622 115.033 149.302 114.978 149.981 114.878C149.58 115.688 149.446 116.909 150.048 117.542C150.237 117.742 150.505 117.52 150.471 117.298C150.349 116.454 150.315 115.655 150.393 114.811H150.371Z" fill="#D67550"/>
<path d="M160.232 123.459C158.661 122.648 156.9 122.26 155.552 121.072C153.58 119.329 158.46 117.808 159.563 117.331C159.786 117.231 159.73 116.954 159.563 116.843C159.597 116.821 159.63 116.798 159.664 116.776C159.686 116.765 159.664 116.732 159.652 116.743C159.597 116.765 159.541 116.787 159.485 116.809C159.418 116.787 159.34 116.787 159.262 116.843C159.173 116.898 159.073 116.954 158.984 116.998C157.602 117.509 156.165 117.942 154.683 117.886C153.502 117.842 152.41 117.154 153.045 115.788C153.357 115.122 154.003 114.623 154.438 114.034C154.549 113.879 154.327 113.668 154.182 113.779C153.056 114.578 151.062 116.71 152.778 117.964C153.491 118.475 154.26 118.663 155.04 118.652C154.371 119.129 153.937 119.773 154.093 120.772C154.237 121.76 154.95 122.426 155.864 122.87C155.385 122.826 154.906 122.793 154.427 122.781C153.569 122.748 152.221 122.915 151.942 123.914C151.396 125.867 154.549 127 155.942 127.444C156.432 127.599 156.644 126.844 156.154 126.678C155.541 126.467 151.329 124.58 153.257 123.781C153.948 123.492 154.861 123.625 155.597 123.658C156.856 123.703 158.093 123.758 159.34 123.714C159.641 123.736 159.92 123.758 160.165 123.769C160.31 123.769 160.365 123.559 160.243 123.492L160.232 123.459Z" fill="#D67550"/>
<path d="M143.53 118.031C143.485 118.186 143.43 118.342 143.374 118.508C141.658 124.003 128.422 151.82 120.812 167.627C122.728 166.895 124.578 166.018 126.327 164.919C128.656 163.531 130.906 161.866 133.001 160.012L145.569 137.434C146.26 130.985 145.056 124.391 143.508 118.042L143.53 118.031Z" fill="#D67550"/>
<path d="M55.5201 117.364C54.2611 109.416 53.08 101.446 51.8433 93.998C51.5425 92.1332 51.2416 90.3016 50.9408 88.5144C50.6288 86.7273 50.328 84.9734 50.0272 83.264C49.4478 79.8561 48.8461 76.637 48.3002 73.6621C47.7654 70.6872 47.2083 67.9787 46.7514 65.5588C46.2612 63.1501 45.8267 61.0521 45.4813 59.3315C45.1136 57.611 44.8239 56.2456 44.6122 55.3243C44.4005 54.403 44.3002 53.9145 44.3002 53.9145C44.1777 53.3595 43.654 52.9599 43.0635 53.0154C42.4284 53.0709 41.9604 53.637 42.0273 54.2697C42.0273 54.2697 42.0718 54.7693 42.161 55.7128C42.2501 56.6563 42.3838 58.0328 42.5732 59.7866C42.7738 61.5405 43.0189 63.6607 43.2863 66.1028C43.5983 68.5337 43.9103 71.2866 44.3225 74.2837C44.7236 77.2808 45.147 80.5222 45.6484 83.9411C45.8935 85.6505 46.1498 87.4155 46.406 89.2138C46.6846 91.012 46.9631 92.8436 47.2528 94.7085C48.3782 102.168 49.7152 110.116 50.9854 118.064C51.2751 119.818 51.5759 121.56 51.8656 123.314C53.1803 122.304 54.5731 121.383 55.9881 120.517C55.8321 119.462 55.665 118.408 55.509 117.353L55.5201 117.364Z" fill="#E0A326"/>
<path d="M16.8689 27.2737C16.8689 27.2737 109.904 3.75199 192.577 32.6352L183.919 76.3818C100.266 53.2708 26.2838 77.9137 26.2838 77.9137L16.8689 27.2737Z" fill="white"/>
<path opacity="0.1" d="M50.0383 60.6861C31.2419 60.1977 16.88 27.2739 16.88 27.2739L26.306 77.9028C26.306 77.9028 100.288 53.2599 183.942 76.3709C183.942 76.3709 140.533 63.0394 50.0494 60.675L50.0383 60.6861Z" fill="#B3D2FF"/>
<path d="M89.3135 172.944L60.8348 137.079C60.8348 137.079 65.715 132.217 65.8487 128.798C65.9824 125.379 61.8933 125.124 61.8933 125.124C61.8933 125.124 62.027 117.242 58.8627 116.854C55.6984 116.454 43.0412 128.543 43.1749 132.217C43.3086 135.891 84.8345 178.45 84.8345 178.45L89.3135 172.933V172.944Z" fill="#FFA585"/>
<path d="M64.4894 181.158C64.4894 181.158 64.2442 179.16 63.8097 175.664C63.3418 172.167 62.6844 167.183 61.8933 161.189C61.0688 155.206 60.0995 148.224 59.0076 140.753C58.8627 139.721 58.7067 138.688 58.5619 137.634C57.2917 138.444 55.9547 138.877 54.5285 139.099C54.6622 139.865 54.7959 140.631 54.9296 141.397C56.1998 148.834 57.4365 155.772 58.5062 161.722C59.6092 167.66 60.5229 172.611 61.1691 176.074C61.8376 179.538 62.2276 181.514 62.2276 181.514C62.339 182.102 62.8961 182.513 63.4977 182.435C64.1328 182.357 64.5785 181.78 64.5005 181.158H64.4894Z" fill="#E0A326"/>
<path d="M63.3417 128.853C63.2415 127.887 62.6064 127.31 61.715 126.966C61.9824 126.156 61.9156 125.334 61.7707 124.491C61.7596 124.413 61.6482 124.446 61.6482 124.513C61.5813 125.29 61.4142 126.056 61.0911 126.777C59.1524 126.289 56.4895 126.622 55.3196 126.7C55.1859 126.7 55.1859 126.9 55.3196 126.911C57.4588 127.033 60.0994 126.866 62.0159 127.921C63.7429 128.875 62.2498 130.973 61.4699 131.839C60.6565 132.738 59.5646 133.482 58.3502 133.582C56.69 132.039 53.6037 131.639 51.7096 131.284C51.6316 131.273 51.5982 131.373 51.6762 131.406C53.5703 132.161 55.6538 132.661 57.3585 133.804C58.8516 134.803 59.1747 136.512 57.8265 137.8C56.4115 139.154 54.7625 139.088 52.9463 138.832C52.3001 138.744 52.1998 139.698 52.8238 139.698C55.4533 139.698 60.4114 139.088 59.3864 135.236C59.2749 134.825 59.0967 134.459 58.8627 134.137C61.1356 133.46 63.5869 131.306 63.3417 128.853Z" fill="#D67550"/>
<path d="M65.4587 142.906C63.4754 146.858 62.6287 150.843 62.4615 155.028C66.4281 159.279 70.4726 163.542 74.0045 167.238C77.0017 166.417 80.0992 165.351 82.127 163.897L65.4476 142.906H65.4587Z" fill="#D67550"/>
<path d="M78.3945 220.232C78.3945 220.232 96.9569 234.418 132.956 221.42C132.956 221.42 125.97 201.195 121.224 186.342L128.745 172.678L115.497 165.851L111.207 176.618C111.207 176.618 108.4 173.988 97.3469 176.097L87.8762 166.639L81.3359 180.959L90.1158 185.166L78.4056 220.232H78.3945Z" fill="white"/>
<g style="mix-blend-mode:multiply" opacity="0.49">
<path d="M121.425 186.986C120.767 186.908 120.076 186.842 119.497 186.842C119.241 189.395 120.522 192.192 121.035 194.745C122.316 200.096 123.597 205.457 125.124 210.808C126.271 214.826 127.475 218.844 128.644 222.863C130.059 222.419 131.486 221.952 132.956 221.419C132.956 221.419 126.171 201.761 121.425 186.986Z" fill="#B0316F"/>
</g>
<g style="mix-blend-mode:multiply" opacity="0.3">
<path d="M103.375 221.775C98.2605 215.403 96.7229 206.989 96.7229 199.341C96.5223 191.526 97.8037 183.712 98.4499 175.908C98.0934 175.964 97.7257 176.03 97.3469 176.108L87.8762 166.65L81.3359 180.97L90.1157 185.177L78.4056 220.243C78.4056 220.243 88.8121 228.191 109.135 226.737C107.029 225.449 105.09 223.851 103.397 221.786L103.375 221.775Z" fill="#B0316F"/>
</g>
<path d="M110.372 195.078C114.996 195.156 119.653 195.522 124.333 195.889C124.021 194.956 123.72 194.024 123.419 193.102C119.542 193.025 115.664 193.003 111.865 192.958C106.093 192.88 100.333 193.091 94.5725 193.369C92.1213 193.491 89.6366 193.78 87.152 194.035L86.7509 195.245C88.9013 195.167 91.0405 195.056 93.1463 195.023C98.8956 194.934 104.645 194.99 110.383 195.078H110.372Z" fill="#B0316F"/>
<path d="M88.9013 184.589C90.0712 183.001 91.074 181.259 92.1659 179.682C93.3581 177.973 94.5837 176.286 95.8427 174.621L95.1296 173.91C92.2439 176.985 89.4027 180.282 87.2189 183.79L88.879 184.589H88.9013Z" fill="#B0316F"/>
<path d="M89.2801 187.63C100.132 187.741 111.007 187.919 121.87 188.363C121.692 187.808 121.514 187.253 121.335 186.709C118.672 186.642 115.998 186.598 113.335 186.553C105.402 186.42 97.4917 186.52 89.5698 186.764L89.2801 187.63Z" fill="#B0316F"/>
<path d="M123.976 181.336L124.867 179.715C122.973 178.661 121.023 177.673 119.207 176.685C117.079 175.53 114.661 174.687 112.388 173.632L112.076 174.409C113.848 175.397 115.731 176.252 117.425 177.162C119.575 178.317 121.725 179.982 123.976 181.325V181.336Z" fill="#B0316F"/>
<path d="M127.541 174.854L128.399 173.3C123.876 171.357 119.274 169.581 114.828 167.527L114.55 168.227C117.369 169.681 120.277 170.968 123.062 172.489C124.522 173.288 126.026 174.088 127.541 174.865V174.854Z" fill="#B0316F"/>
<path d="M87.5865 176.452C88.7787 174.321 90.1158 172.267 91.4305 170.202L90.7843 169.559C87.8205 173.422 84.9682 177.34 82.4278 181.492L84.1548 182.324C85.425 180.448 86.4946 178.406 87.5865 176.452Z" fill="#B0316F"/>
<path d="M100.032 161.244C99.9429 161.711 100.099 176.774 100.689 177.973C101.28 179.183 106.817 179.582 107.809 178.283C108.801 176.985 110.985 161.133 110.985 161.133L100.043 161.233L100.032 161.244Z" fill="#FFA585"/>
<path d="M109.915 168.293C110.517 164.53 110.973 161.145 110.973 161.145L100.032 161.244C99.9875 161.455 99.9986 164.663 100.077 168.215C103.285 168.693 106.628 168.671 109.915 168.293Z" fill="#D67550"/>
<path d="M78.3945 159.202C78.3945 159.202 86.2829 165.007 105.113 165.163C123.943 165.318 141.903 151.265 142.382 130.485C142.862 109.716 126.282 99.0043 115.486 96.6066C104.689 94.2089 82.4278 103.955 82.4278 103.955C82.4278 103.955 69.2024 141.941 78.3945 159.191V159.202Z" fill="#FFA585"/>
<path d="M132.756 106.253C131.43 105.809 129.848 106.43 129.358 108.007C128.845 109.627 128.076 110.982 127.174 112.413C125.636 114.844 123.475 113.723 121.347 112.669C117.113 110.549 113.558 107.008 110.349 103.6C109.202 102.379 107.029 102.678 106.216 104.133C103.809 108.462 102.283 113.235 99.475 117.342C97.6811 119.973 94.7954 122.248 91.8539 123.425C87.8428 125.035 86.1047 121.571 84.9459 118.519C84.7565 118.03 84.0768 118.108 84.0434 118.641C83.5643 125.601 88.9904 128.931 95.3859 125.778C102.45 122.293 105.503 116.265 108.99 109.927C113.135 114.511 118.227 119.629 124.165 120.528C128.956 121.249 132.344 117.964 133.792 113.912C135.564 115.033 137.591 115.832 139.664 116.221C137.937 112.302 135.519 108.983 132.756 106.253Z" fill="#D67550"/>
<path d="M142.382 130.485C142.516 124.79 141.357 119.862 139.408 115.655C141.614 129.286 139.107 143.55 129.224 153.685C125.636 157.27 121.425 160.523 116.845 163.409C130.784 159.035 142.004 146.847 142.382 130.496V130.485Z" fill="#FFB199"/>
<path d="M95.0739 137.046C93.0349 139.71 97.4583 143.339 101.926 142.107C106.394 140.875 107.029 136.047 104.132 135.203C101.235 134.359 97.3134 134.126 95.0739 137.046Z" fill="#F47069"/>
<path d="M140.132 127.433C137.747 128.143 133.948 134.16 136.422 135.181C137.357 136.358 141.057 134.648 141.825 132.595C142.706 130.241 142.516 126.722 140.132 127.433Z" fill="#F47069"/>
<path d="M129.692 137.656C129.436 139.11 128.867 140.575 128.165 141.841C127.931 142.274 128.555 142.629 128.823 142.218C129.803 140.653 130.26 139.021 130.449 137.19C130.472 136.957 130.215 136.834 130.026 136.868C128.087 137.245 126.26 138.377 124.466 139.154C124.433 139.165 124.444 139.221 124.466 139.232C126.227 139.51 127.965 138.178 129.681 137.656H129.692Z" fill="#D67550"/>
<path d="M132.02 142.085C131.898 141.675 131.553 141.541 131.151 141.519C130.817 141.497 130.383 141.464 130.071 141.597C129.903 141.675 129.915 141.897 130.015 142.019C130.059 142.063 130.104 142.096 130.149 142.13C129.068 147.436 127.007 153.43 121.558 155.65C118.16 157.038 114.795 154.562 113.18 151.765C111.831 149.445 111.965 146.725 111.909 144.139C112.344 144.239 112.767 144.294 112.801 143.795C112.801 143.65 112.712 143.484 112.578 143.417C111.831 143.007 110.996 142.984 110.216 143.329C109.726 143.539 108.923 144.139 109.191 144.761C109.191 144.783 109.235 144.794 109.258 144.794C109.514 144.727 109.737 144.539 109.959 144.394C110.316 144.15 110.773 144.083 111.196 144.039C111.263 144.039 111.352 144.039 111.453 144.061C110.695 149.023 112.856 156.571 118.929 156.827C126.349 157.137 129.748 148.357 130.594 142.274C130.639 142.274 130.695 142.285 130.739 142.296C131.062 142.363 131.33 142.574 131.675 142.574C131.909 142.574 132.11 142.33 132.043 142.096L132.02 142.085Z" fill="#B73427"/>
<path d="M118.472 136.657C119.787 135.147 116.255 124.535 109.67 124.38C103.085 124.224 101.235 133.282 102.628 135.969C103.731 138.1 112.567 143.406 118.472 136.657Z" fill="white"/>
<path d="M112.333 133.127C114.205 133.127 115.776 131.218 116.21 128.642C114.65 126.345 112.433 124.446 109.681 124.38C109.369 124.38 109.079 124.391 108.79 124.424C108.5 125.246 108.333 126.189 108.333 127.177C108.333 130.463 110.127 133.127 112.333 133.127Z" fill="#662C24"/>
<path d="M109.57 125.435C109.191 126.756 108.489 129.409 109.971 130.297C110.238 130.463 110.639 130.308 110.706 129.997C110.862 129.32 110.55 128.632 110.316 127.988C110.026 127.177 109.915 126.312 109.859 125.468C109.859 125.301 109.614 125.268 109.57 125.424V125.435Z" fill="#913C33"/>
<path d="M110.706 131.362C110.817 131.728 111.007 131.95 111.386 132.039C111.809 132.139 112.188 131.695 111.954 131.307C111.809 131.062 111.664 130.951 111.419 130.818C111.051 130.629 110.583 130.94 110.706 131.362Z" fill="#913C33"/>
<path d="M131.274 132.184C131.274 132.184 132.956 134.648 137.146 133.083C140.41 131.851 140.488 126.767 138.962 124.391C137.435 122.016 133.97 122.016 132.11 124.757C130.115 127.71 130.728 131.318 131.263 132.195L131.274 132.184Z" fill="white"/>
<path d="M134.36 129.298C136.02 129.298 137.369 127.444 137.369 125.157C137.369 124.28 137.168 123.47 136.834 122.804C135.229 122.349 133.335 122.959 132.121 124.757C131.842 125.179 131.608 125.612 131.43 126.045C131.72 127.91 132.923 129.309 134.371 129.309L134.36 129.298Z" fill="#662C24"/>
<path d="M132.154 125.812C132.121 126.311 132.21 126.8 132.422 127.255C132.689 127.832 133.38 128.498 134.071 128.099C134.717 127.721 134.383 126.866 133.837 126.578C133.413 126.334 133.112 126.078 132.89 125.623C132.7 125.235 132.165 125.468 132.143 125.823L132.154 125.812Z" fill="#913C33"/>
<path d="M134.427 128.62C134.427 128.62 134.449 128.676 134.461 128.698C134.539 128.864 134.75 128.92 134.917 128.887C135.107 128.842 135.196 128.776 135.285 128.609C135.352 128.487 135.33 128.276 135.185 128.209C134.951 128.11 134.773 128.065 134.539 128.187C134.383 128.276 134.349 128.465 134.427 128.62Z" fill="#913C33"/>
<path d="M76.3332 103.4C76.3332 103.4 80.6451 94.7972 78.3945 94.22C76.1438 93.6428 71.7316 97.0839 70.9628 106.264C70.9628 106.264 70.9182 94.4087 66.2386 95.3634C61.559 96.318 60.0215 109.472 67.6982 111.304C67.6982 111.304 56.1218 129.908 73.6146 153.174L83.8429 151.964C83.8429 151.964 89.4584 146.88 86.7397 141.485C84.01 136.091 80.1215 142.396 80.1215 142.396C80.1215 142.396 80.8234 129.397 86.7397 121.56C86.7397 121.56 85.737 127.31 92.6561 124.435C99.5641 121.56 104.901 112.669 109.681 104.543C109.681 104.543 116.455 115.189 123.564 116.843C130.661 118.497 130.472 108.806 130.472 108.806C130.472 108.806 138.026 116.898 142.416 108.806C146.795 100.714 141.424 96.1293 132.979 101.291C132.979 101.291 145.569 91.9222 139.942 87.7152C134.327 83.5082 124.544 89.0584 118.494 94.986C118.494 94.986 126.26 81.7876 117.046 81.7876C107.831 81.7876 90.372 86.7606 76.3555 103.4H76.3332Z" fill="#539181"/>
<path d="M106.895 108.573C104.01 112.259 101.291 116.055 98.2159 119.596C96.5335 121.527 94.6171 123.303 92.1547 124.18C85.5587 126.534 88.0433 116.055 88.4445 113.224C88.4667 113.091 88.2885 113.036 88.2439 113.169C87.152 116.643 85.2356 120.395 87.0406 123.914C88.2996 126.367 91.2856 126.456 93.4695 125.557C96.1212 124.458 98.1156 121.971 99.8092 119.773C102.461 116.343 105.536 112.913 107.419 108.984C107.575 108.662 107.141 108.262 106.895 108.573Z" fill="#376156"/>
<path d="M128.689 115.411C118.739 115.322 114.193 108.229 108.5 101.247C108.455 101.191 108.377 101.258 108.4 101.324C111.553 108.629 119.062 121.572 128.867 116.077C129.179 115.899 129.034 115.422 128.689 115.411Z" fill="#376156"/>
<path d="M139.174 111.37C134.16 111.759 130.516 108.518 127.965 104.533C127.865 104.377 127.586 104.477 127.653 104.666C129.502 109.206 133.926 114.434 139.263 111.726C139.43 111.648 139.352 111.359 139.162 111.37H139.174Z" fill="#376156"/>
<path d="M69.9712 110.615C67.8096 109.383 65.8598 109.561 64.3111 107.208C62.7289 104.821 62.9406 101.491 63.1523 98.7713C63.1523 98.7269 63.0855 98.7158 63.0743 98.7602C62.027 102.235 61.715 105.409 63.4086 108.728C64.5005 110.871 67.3974 112.613 69.7818 112.025C70.4391 111.859 70.5394 110.937 69.9712 110.615Z" fill="#376156"/>
<path d="M74.7065 95.9076C71.7093 98.8381 69.96 103.323 70.1829 107.519C70.2163 108.174 71.2525 108.384 71.3751 107.685C72.1439 103.489 72.4447 99.704 74.7733 95.9631C74.7956 95.9187 74.7399 95.8743 74.7065 95.9076Z" fill="#376156"/>
<path d="M118.461 95.4635C123.72 90.8902 129.257 87.4934 136.31 86.7719C136.689 86.7275 136.678 86.2391 136.31 86.1836C131.864 85.5953 128.377 87.0827 124.522 89.2362C122.405 90.4239 118.617 92.7217 118.138 95.2859C118.104 95.4746 118.305 95.5967 118.45 95.4635H118.461Z" fill="#6FC2AD"/>
<path d="M135.931 89.0253C135.341 88.9365 134.75 89.4915 135.118 90.0798C135.987 91.5006 135.062 93.2545 135.029 94.7864C135.029 95.2526 135.452 95.7521 135.954 95.7077C139.798 95.3747 139.552 89.5692 135.931 89.0142V89.0253Z" fill="#6FC2AD"/>
<path d="M133.424 92.766C133.157 92.3553 132.578 92.3553 132.31 92.766C132.132 93.0436 131.909 93.3322 131.82 93.6541C131.653 94.2313 131.731 94.6642 132.11 95.1304C132.444 95.5522 133.291 95.5522 133.636 95.1304C134.015 94.6531 134.082 94.2313 133.926 93.6541C133.837 93.3322 133.614 93.0436 133.435 92.766H133.424Z" fill="#6FC2AD"/>
<path d="M138.427 103.511C137.848 103.411 137.257 104.132 137.792 104.599C138.605 105.287 138.238 106.319 138.438 107.274C138.761 108.806 141.346 108.484 141.201 106.896C141.068 105.42 139.976 103.788 138.427 103.511Z" fill="#6FC2AD"/>
<path d="M110.751 88.2702C109.837 87.6264 108.689 89.1139 109.558 89.8132C111.798 91.6114 112.255 94.8195 108.377 93.332C106.383 92.5661 104.611 93.3653 103.051 94.5641C102.439 95.0415 101.993 96.0183 101.625 96.6732C100.879 98.0275 101.18 99.3373 99.4415 98.527C97.9262 97.8166 96.5669 96.9174 94.8399 96.9507C91.9542 97.0173 91.1185 100.27 90.5837 102.501C90.4389 103.111 90.294 103.722 90.1157 104.332C89.6589 105.898 88.3665 103.633 88.0099 103.156C87.2634 102.157 86.4946 100.936 85.3359 100.381C84.7676 100.114 84.2439 100.647 84.5002 101.213C85.4473 103.278 87.8205 110.904 91.6088 108.096C93.1686 106.941 93.8706 105.376 94.4611 103.555C94.6282 103.023 94.9625 101.169 95.4639 101.413C96.8566 102.079 97.7702 103.478 99.2521 104.122C101.792 105.209 104.054 104.022 105.648 101.99C106.561 100.836 106.973 99.4594 107.341 98.0608C107.542 97.3059 110.895 97.3836 111.698 96.9285C115.319 94.8528 113.536 90.2239 110.751 88.2591V88.2702Z" fill="#6FC2AD"/>
<path d="M73.0575 113.057C73.1243 112.913 72.9126 112.78 72.8347 112.935C68.3556 122.171 65.403 136.635 72.5895 145.293C72.9572 145.737 73.6926 145.16 73.3806 144.682C67.3194 135.48 68.8347 122.704 73.0575 113.057Z" fill="#376156"/>
<path d="M80.5114 150.011C76.3332 146.514 76.8012 140.465 77.2691 135.591C77.7705 130.374 79.1744 125.29 80.2663 120.173C80.2997 119.984 80.0323 119.907 79.9878 120.095C78.439 125.834 76.5783 131.507 75.8987 137.434C75.3639 142.118 75.4864 148.002 79.8429 150.854C80.3554 151.188 80.9794 150.399 80.5003 150L80.5114 150.011Z" fill="#376156"/>
<path d="M83.0072 150.244C80.0546 146.936 70.1829 141.108 64.8236 147.147C59.4644 153.185 68.9461 163.797 76.556 163.72C84.1771 163.642 87.4417 155.206 83.0072 150.244Z" fill="#FFA585"/>
<path d="M82.8512 155.439C79.8095 150.61 72.8681 150.41 68.5673 153.54C68.4336 153.629 68.545 153.84 68.6899 153.751C71.5422 152.12 74.5839 151.798 77.3248 152.697C76.3332 153.019 75.3973 153.674 74.829 154.306C74.1828 155.028 73.7594 155.971 73.8263 156.948C73.8931 157.903 74.6173 159.146 75.687 159.102C75.9544 159.091 76.1661 158.846 76.0881 158.569C75.9098 157.947 75.3304 157.592 75.1633 156.959C74.985 156.282 75.4753 155.55 75.8987 155.072C76.7677 154.084 77.9042 153.629 79.1298 153.485C80.2217 154.095 81.2356 154.928 82.1381 155.971C82.4724 156.36 83.0963 155.86 82.8289 155.439H82.8512Z" fill="#D67550"/>
<path d="M68.2442 147.546C69.247 148.035 70.4057 147.691 71.4753 147.713C73.1801 147.757 74.5617 148.668 76.2218 148.823C76.7566 148.867 77.0686 148.09 76.6675 147.746C74.1828 145.648 71.1522 146.292 68.311 147.047C68.0993 147.102 68.0325 147.435 68.2442 147.546Z" fill="#FFB199"/>
<path d="M77.414 149.467C77.5143 149.711 77.6925 149.833 77.9042 149.989C78.7287 150.555 79.5755 149.067 78.673 148.668C78.3053 148.501 77.9042 148.423 77.5811 148.734C77.3583 148.945 77.2914 149.189 77.414 149.478V149.467Z" fill="#FFB199"/>
</g>
<path d="M149.806 33.1645C149.806 31.2467 150.401 29.7398 151.592 28.6439C152.782 27.548 154.479 27 156.684 27C157.425 27 158.167 27.0978 158.908 27.2935C159.669 27.4892 160.342 27.7339 160.928 28.0274L160.05 29.9355C159.679 29.7202 159.22 29.5245 158.674 29.3484C158.128 29.1527 157.562 29.0548 156.977 29.0548C156.567 29.0548 156.177 29.1331 155.806 29.2897C155.435 29.4462 155.104 29.6909 154.811 30.0235C154.538 30.3367 154.313 30.7574 154.138 31.2858C153.982 31.8142 153.904 32.4404 153.904 33.1645V33.458H158.44V35.5129H153.904V48.1354H149.806V35.5129H147.026V33.458H149.806V33.1645Z" fill="#DB8181"/>
<path d="M128.283 32.8711H132.38V42.1178C132.38 43.5269 132.731 44.5445 133.434 45.1707C134.136 45.7774 135.151 46.0807 136.477 46.0807H140.282V32.8711H144.379V48.1356H136.477C133.687 48.1356 131.619 47.6365 130.273 46.6385C128.946 45.6208 128.283 44.114 128.283 42.1178V32.8711Z" fill="#DB8181"/>
<path d="M106.346 34.9259H102.834C101.508 34.9259 100.493 35.288 99.7907 36.0121C99.0883 36.7166 98.7371 37.7733 98.7371 39.1824V48.1356H94.6397V39.1824C94.6397 37.1862 95.2641 35.6402 96.5128 34.5443C97.781 33.4288 99.5956 32.8711 101.956 32.8711H106.346V34.9259Z" fill="#DB8181"/>
<path d="M74.5795 32.8711H78.6768V42.1178C78.6768 43.5269 79.028 44.5445 79.7304 45.1707C80.4328 45.7774 81.4474 46.0807 82.7742 46.0807H86.5788V32.8711H90.6762V48.1356H82.7742C79.9841 48.1356 77.9159 47.6365 76.5696 46.6385C75.2429 45.6208 74.5795 44.114 74.5795 42.1178V32.8711Z" fill="#DB8181"/>
<path d="M70.4867 27.5869V48.1352H66.243V39.182H54.2437V48.1352H50V27.5869H54.2437V36.9804H66.243V27.5869H70.4867Z" fill="#DB8181"/>
<path d="M55.4816 58.1719L55.0028 56.8531H52.3568L51.878 58.1719H51.0464L53.2388 52.2919H54.1208L56.3132 58.1719H55.4816ZM52.6256 56.1223H54.734L53.6756 53.2243L52.6256 56.1223ZM57.662 54.6775C57.9028 54.1567 58.3396 53.8963 58.9724 53.8963V54.6607C58.614 54.6439 58.306 54.7391 58.0484 54.9463C57.7908 55.1535 57.662 55.4867 57.662 55.9459V58.1719H56.9312V53.9719H57.662V54.6775ZM62.9354 53.9719H63.6662V58.1719H62.9354V57.4495C62.5714 58.0039 62.0422 58.2811 61.3478 58.2811C60.7598 58.2811 60.2586 58.0683 59.8442 57.6427C59.4298 57.2115 59.2226 56.6879 59.2226 56.0719C59.2226 55.4559 59.4298 54.9351 59.8442 54.5095C60.2586 54.0783 60.7598 53.8627 61.3478 53.8627C62.0422 53.8627 62.5714 54.1399 62.9354 54.6943V53.9719ZM61.4402 57.5755C61.8658 57.5755 62.2214 57.4327 62.507 57.1471C62.7926 56.8559 62.9354 56.4975 62.9354 56.0719C62.9354 55.6463 62.7926 55.2907 62.507 55.0051C62.2214 54.7139 61.8658 54.5683 61.4402 54.5683C61.0202 54.5683 60.6674 54.7139 60.3818 55.0051C60.0962 55.2907 59.9534 55.6463 59.9534 56.0719C59.9534 56.4975 60.0962 56.8559 60.3818 57.1471C60.6674 57.4327 61.0202 57.5755 61.4402 57.5755ZM67.0918 53.8627C67.6798 53.8627 68.181 54.0783 68.5954 54.5095C69.0098 54.9351 69.217 55.4559 69.217 56.0719C69.217 56.6879 69.0098 57.2115 68.5954 57.6427C68.181 58.0683 67.6798 58.2811 67.0918 58.2811C66.3974 58.2811 65.8682 58.0039 65.5042 57.4495V58.1719H64.7734V52.2919H65.5042V54.6943C65.8682 54.1399 66.3974 53.8627 67.0918 53.8627ZM66.9994 57.5755C67.4194 57.5755 67.7722 57.4327 68.0578 57.1471C68.3434 56.8559 68.4862 56.4975 68.4862 56.0719C68.4862 55.6463 68.3434 55.2907 68.0578 55.0051C67.7722 54.7139 67.4194 54.5683 66.9994 54.5683C66.5738 54.5683 66.2182 54.7139 65.9326 55.0051C65.647 55.2907 65.5042 55.6463 65.5042 56.0719C65.5042 56.4975 65.647 56.8559 65.9326 57.1471C66.2182 57.4327 66.5738 57.5755 66.9994 57.5755ZM70.4586 53.2075C70.3186 53.2075 70.201 53.1599 70.1058 53.0647C70.0106 52.9695 69.963 52.8547 69.963 52.7203C69.963 52.5859 70.0106 52.4711 70.1058 52.3759C70.201 52.2751 70.3186 52.2247 70.4586 52.2247C70.593 52.2247 70.7078 52.2751 70.803 52.3759C70.8982 52.4711 70.9458 52.5859 70.9458 52.7203C70.9458 52.8547 70.8982 52.9695 70.803 53.0647C70.7078 53.1599 70.593 53.2075 70.4586 53.2075ZM70.089 58.1719V53.9719H70.8198V58.1719H70.089ZM73.9087 58.2811C73.2759 58.2811 72.7495 58.0711 72.3295 57.6511C71.9095 57.2255 71.6995 56.6991 71.6995 56.0719C71.6995 55.4447 71.9095 54.9211 72.3295 54.5011C72.7495 54.0755 73.2759 53.8627 73.9087 53.8627C74.3231 53.8627 74.6955 53.9635 75.0259 54.1651C75.3563 54.3611 75.6027 54.6271 75.7651 54.9631L75.1519 55.3159C75.0455 55.0919 74.8803 54.9127 74.6563 54.7783C74.4379 54.6439 74.1887 54.5767 73.9087 54.5767C73.4887 54.5767 73.1359 54.7195 72.8503 55.0051C72.5703 55.2907 72.4303 55.6463 72.4303 56.0719C72.4303 56.4919 72.5703 56.8447 72.8503 57.1303C73.1359 57.4159 73.4887 57.5587 73.9087 57.5587C74.1887 57.5587 74.4407 57.4943 74.6647 57.3655C74.8887 57.2311 75.0595 57.0519 75.1771 56.8279L75.7987 57.1891C75.6195 57.5195 75.3619 57.7855 75.0259 57.9871C74.6899 58.1831 74.3175 58.2811 73.9087 58.2811ZM79.4853 57.4327H82.0221V58.1719H78.7041V52.2919H79.4853V57.4327ZM83.0784 56.4079C83.1512 56.7831 83.322 57.0743 83.5908 57.2815C83.8652 57.4887 84.2012 57.5923 84.5988 57.5923C85.1532 57.5923 85.5564 57.3879 85.8084 56.9791L86.43 57.3319C86.0212 57.9647 85.4052 58.2811 84.582 58.2811C83.9156 58.2811 83.3724 58.0739 82.9524 57.6595C82.538 57.2395 82.3308 56.7103 82.3308 56.0719C82.3308 55.4391 82.5352 54.9127 82.944 54.4927C83.3528 54.0727 83.882 53.8627 84.5316 53.8627C85.1476 53.8627 85.6488 54.0811 86.0352 54.5179C86.4272 54.9491 86.6232 55.4699 86.6232 56.0803C86.6232 56.1867 86.6148 56.2959 86.598 56.4079H83.0784ZM84.5316 54.5515C84.1396 54.5515 83.8148 54.6635 83.5572 54.8875C83.2996 55.1059 83.14 55.3999 83.0784 55.7695H85.884C85.8224 55.3719 85.6656 55.0695 85.4136 54.8623C85.1616 54.6551 84.8676 54.5515 84.5316 54.5515ZM90.9326 53.9719H91.6634V58.1719H90.9326V57.4495C90.5686 58.0039 90.0394 58.2811 89.345 58.2811C88.757 58.2811 88.2558 58.0683 87.8414 57.6427C87.427 57.2115 87.2198 56.6879 87.2198 56.0719C87.2198 55.4559 87.427 54.9351 87.8414 54.5095C88.2558 54.0783 88.757 53.8627 89.345 53.8627C90.0394 53.8627 90.5686 54.1399 90.9326 54.6943V53.9719ZM89.4374 57.5755C89.863 57.5755 90.2186 57.4327 90.5042 57.1471C90.7898 56.8559 90.9326 56.4975 90.9326 56.0719C90.9326 55.6463 90.7898 55.2907 90.5042 55.0051C90.2186 54.7139 89.863 54.5683 89.4374 54.5683C89.0174 54.5683 88.6646 54.7139 88.379 55.0051C88.0934 55.2907 87.9506 55.6463 87.9506 56.0719C87.9506 56.4975 88.0934 56.8559 88.379 57.1471C88.6646 57.4327 89.0174 57.5755 89.4374 57.5755ZM93.5015 54.6775C93.7423 54.1567 94.1791 53.8963 94.8119 53.8963V54.6607C94.4535 54.6439 94.1455 54.7391 93.8879 54.9463C93.6303 55.1535 93.5015 55.4867 93.5015 55.9459V58.1719H92.7707V53.9719H93.5015V54.6775ZM97.6185 53.8627C98.1113 53.8627 98.5061 54.0195 98.8029 54.3331C99.0997 54.6411 99.2481 55.0611 99.2481 55.5931V58.1719H98.5173V55.6351C98.5173 55.2935 98.4249 55.0303 98.2401 54.8455C98.0553 54.6551 97.8005 54.5599 97.4757 54.5599C97.1117 54.5599 96.8177 54.6747 96.5937 54.9043C96.3697 55.1283 96.2577 55.4755 96.2577 55.9459V58.1719H95.5269V53.9719H96.2577V54.5767C96.5545 54.1007 97.0081 53.8627 97.6185 53.8627ZM100.638 53.2075C100.498 53.2075 100.38 53.1599 100.285 53.0647C100.19 52.9695 100.142 52.8547 100.142 52.7203C100.142 52.5859 100.19 52.4711 100.285 52.3759C100.38 52.2751 100.498 52.2247 100.638 52.2247C100.772 52.2247 100.887 52.2751 100.982 52.3759C101.078 52.4711 101.125 52.5859 101.125 52.7203C101.125 52.8547 101.078 52.9695 100.982 53.0647C100.887 53.1599 100.772 53.2075 100.638 53.2075ZM100.268 58.1719V53.9719H100.999V58.1719H100.268ZM104.206 53.8627C104.698 53.8627 105.093 54.0195 105.39 54.3331C105.687 54.6411 105.835 55.0611 105.835 55.5931V58.1719H105.104V55.6351C105.104 55.2935 105.012 55.0303 104.827 54.8455C104.642 54.6551 104.388 54.5599 104.063 54.5599C103.699 54.5599 103.405 54.6747 103.181 54.9043C102.957 55.1283 102.845 55.4755 102.845 55.9459V58.1719H102.114V53.9719H102.845V54.5767C103.142 54.1007 103.595 53.8627 104.206 53.8627ZM110.341 53.9719H111.064V57.9955C111.064 58.6171 110.854 59.0987 110.434 59.4403C110.014 59.7875 109.51 59.9611 108.922 59.9611C108.451 59.9611 108.045 59.8715 107.704 59.6923C107.362 59.5187 107.105 59.2667 106.931 58.9363L107.569 58.5751C107.799 59.0455 108.255 59.2807 108.939 59.2807C109.375 59.2807 109.717 59.1659 109.963 58.9363C110.215 58.7067 110.341 58.3931 110.341 57.9955V57.3991C109.972 57.9591 109.445 58.2391 108.762 58.2391C108.163 58.2391 107.656 58.0263 107.242 57.6007C106.827 57.1751 106.62 56.6571 106.62 56.0467C106.62 55.4363 106.827 54.9211 107.242 54.5011C107.656 54.0755 108.163 53.8627 108.762 53.8627C109.451 53.8627 109.977 54.1399 110.341 54.6943V53.9719ZM107.779 57.1135C108.065 57.3991 108.421 57.5419 108.846 57.5419C109.272 57.5419 109.627 57.3991 109.913 57.1135C110.199 56.8279 110.341 56.4723 110.341 56.0467C110.341 55.6267 110.199 55.2739 109.913 54.9883C109.627 54.7027 109.272 54.5599 108.846 54.5599C108.421 54.5599 108.065 54.7027 107.779 54.9883C107.494 55.2739 107.351 55.6267 107.351 56.0467C107.351 56.4723 107.494 56.8279 107.779 57.1135ZM116.589 53.8627C117.177 53.8627 117.679 54.0783 118.093 54.5095C118.507 54.9351 118.715 55.4559 118.715 56.0719C118.715 56.6879 118.507 57.2115 118.093 57.6427C117.679 58.0683 117.177 58.2811 116.589 58.2811C115.895 58.2811 115.366 58.0039 115.002 57.4495V59.8519H114.271V53.9719H115.002V54.6943C115.366 54.1399 115.895 53.8627 116.589 53.8627ZM116.497 57.5755C116.917 57.5755 117.27 57.4327 117.555 57.1471C117.841 56.8559 117.984 56.4975 117.984 56.0719C117.984 55.6463 117.841 55.2907 117.555 55.0051C117.27 54.7139 116.917 54.5683 116.497 54.5683C116.071 54.5683 115.716 54.7139 115.43 55.0051C115.145 55.2907 115.002 55.6463 115.002 56.0719C115.002 56.4975 115.145 56.8559 115.43 57.1471C115.716 57.4327 116.071 57.5755 116.497 57.5755ZM119.587 58.1719V52.0399H120.317V58.1719H119.587ZM124.91 53.9719H125.641V58.1719H124.91V57.4495C124.546 58.0039 124.017 58.2811 123.322 58.2811C122.734 58.2811 122.233 58.0683 121.819 57.6427C121.404 57.2115 121.197 56.6879 121.197 56.0719C121.197 55.4559 121.404 54.9351 121.819 54.5095C122.233 54.0783 122.734 53.8627 123.322 53.8627C124.017 53.8627 124.546 54.1399 124.91 54.6943V53.9719ZM123.415 57.5755C123.84 57.5755 124.196 57.4327 124.482 57.1471C124.767 56.8559 124.91 56.4975 124.91 56.0719C124.91 55.6463 124.767 55.2907 124.482 55.0051C124.196 54.7139 123.84 54.5683 123.415 54.5683C122.995 54.5683 122.642 54.7139 122.356 55.0051C122.071 55.2907 121.928 55.6463 121.928 56.0719C121.928 56.4975 122.071 56.8559 122.356 57.1471C122.642 57.4327 122.995 57.5755 123.415 57.5755ZM129.033 54.6775H127.916V56.9539C127.916 57.1611 127.955 57.3095 128.033 57.3991C128.117 57.4831 128.243 57.5279 128.411 57.5335C128.579 57.5335 128.786 57.5279 129.033 57.5167V58.1719C128.394 58.2559 127.927 58.2055 127.63 58.0207C127.333 57.8303 127.185 57.4747 127.185 56.9539V54.6775H126.353V53.9719H127.185V53.0143L127.916 52.7959V53.9719H129.033V54.6775ZM130.197 56.4079C130.27 56.7831 130.441 57.0743 130.71 57.2815C130.984 57.4887 131.32 57.5923 131.718 57.5923C132.272 57.5923 132.675 57.3879 132.927 56.9791L133.549 57.3319C133.14 57.9647 132.524 58.2811 131.701 58.2811C131.034 58.2811 130.491 58.0739 130.071 57.6595C129.657 57.2395 129.45 56.7103 129.45 56.0719C129.45 55.4391 129.654 54.9127 130.063 54.4927C130.472 54.0727 131.001 53.8627 131.65 53.8627C132.266 53.8627 132.768 54.0811 133.154 54.5179C133.546 54.9491 133.742 55.4699 133.742 56.0803C133.742 56.1867 133.734 56.2959 133.717 56.4079H130.197ZM131.65 54.5515C131.258 54.5515 130.934 54.6635 130.676 54.8875C130.418 55.1059 130.259 55.3999 130.197 55.7695H133.003C132.941 55.3719 132.784 55.0695 132.532 54.8623C132.28 54.6551 131.986 54.5515 131.65 54.5515ZM136.618 52.8883C135.879 52.8267 135.509 53.1459 135.509 53.8459V53.9719H136.618V54.6775H135.509V58.1719H134.778V54.6775H134.106V53.9719H134.778V53.8459C134.778 53.2803 134.935 52.8519 135.249 52.5607C135.568 52.2695 136.024 52.1435 136.618 52.1827V52.8883ZM140.489 57.6427C140.058 58.0683 139.534 58.2811 138.918 58.2811C138.302 58.2811 137.779 58.0683 137.348 57.6427C136.922 57.2171 136.709 56.6935 136.709 56.0719C136.709 55.4503 136.922 54.9267 137.348 54.5011C137.779 54.0755 138.302 53.8627 138.918 53.8627C139.534 53.8627 140.058 54.0755 140.489 54.5011C140.92 54.9267 141.136 55.4503 141.136 56.0719C141.136 56.6935 140.92 57.2171 140.489 57.6427ZM138.918 57.5671C139.338 57.5671 139.691 57.4243 139.977 57.1387C140.262 56.8531 140.405 56.4975 140.405 56.0719C140.405 55.6463 140.262 55.2907 139.977 55.0051C139.691 54.7195 139.338 54.5767 138.918 54.5767C138.504 54.5767 138.154 54.7195 137.868 55.0051C137.583 55.2907 137.44 55.6463 137.44 56.0719C137.44 56.4975 137.583 56.8531 137.868 57.1387C138.154 57.4243 138.504 57.5671 138.918 57.5671ZM142.728 54.6775C142.969 54.1567 143.406 53.8963 144.039 53.8963V54.6607C143.68 54.6439 143.372 54.7391 143.115 54.9463C142.857 55.1535 142.728 55.4867 142.728 55.9459V58.1719H141.998V53.9719H142.728V54.6775ZM149.29 53.8627C149.76 53.8627 150.141 54.0167 150.432 54.3247C150.723 54.6271 150.869 55.0387 150.869 55.5595V58.1719H150.138V55.5847C150.138 55.2599 150.054 55.0079 149.886 54.8287C149.718 54.6495 149.494 54.5599 149.214 54.5599C148.901 54.5599 148.649 54.6663 148.458 54.8791C148.273 55.0863 148.181 55.4055 148.181 55.8367V58.1719H147.45V55.5847C147.45 55.2599 147.369 55.0079 147.207 54.8287C147.05 54.6495 146.834 54.5599 146.56 54.5599C146.252 54.5599 145.994 54.6663 145.787 54.8791C145.585 55.0919 145.485 55.4111 145.485 55.8367V58.1719H144.754V53.9719H145.485V54.5347C145.77 54.0867 146.187 53.8627 146.736 53.8627C147.302 53.8627 147.713 54.1007 147.971 54.5767C148.262 54.1007 148.702 53.8627 149.29 53.8627ZM152.395 56.4079C152.468 56.7831 152.638 57.0743 152.907 57.2815C153.182 57.4887 153.518 57.5923 153.915 57.5923C154.47 57.5923 154.873 57.3879 155.125 56.9791L155.746 57.3319C155.338 57.9647 154.722 58.2811 153.898 58.2811C153.232 58.2811 152.689 58.0739 152.269 57.6595C151.854 57.2395 151.647 56.7103 151.647 56.0719C151.647 55.4391 151.852 54.9127 152.26 54.4927C152.669 54.0727 153.198 53.8627 153.848 53.8627C154.464 53.8627 154.965 54.0811 155.352 54.5179C155.744 54.9491 155.94 55.4699 155.94 56.0803C155.94 56.1867 155.931 56.2959 155.914 56.4079H152.395ZM153.848 54.5515C153.456 54.5515 153.131 54.6635 152.874 54.8875C152.616 55.1059 152.456 55.3999 152.395 55.7695H155.2C155.139 55.3719 154.982 55.0695 154.73 54.8623C154.478 54.6551 154.184 54.5515 153.848 54.5515Z" fill="#263238"/>
<g clip-path="url(#clip0_70_3)">
<ellipse cx="117.082" cy="39.8349" rx="8.57817" ry="8.60398" fill="#E38989"/>
</g>
<path d="M118.795 47.1117C114.586 47.1117 111.177 43.7134 111.177 39.523C111.177 35.3327 114.588 31.9323 118.795 31.9323C119.778 31.9323 120.719 32.1196 121.582 32.4582C120.142 31.4915 118.406 30.9272 116.538 30.9272C111.543 30.9272 107.494 34.9601 107.494 39.9361C107.494 44.9122 111.543 48.945 116.538 48.945C119.586 48.945 122.281 47.4396 123.919 45.1379C122.566 46.3643 120.768 47.1096 118.795 47.1096V47.1117Z" fill="#BA6666"/>
<path d="M121.25 30.0136L121.752 31.6396C121.771 31.6988 121.823 31.7382 121.881 31.7382H123.505C123.636 31.7382 123.692 31.9157 123.584 31.9968L122.27 33.0026C122.222 33.0398 122.202 33.1034 122.22 33.1625L122.722 34.7885C122.764 34.9199 122.62 35.0295 122.512 34.9484L121.198 33.9426C121.15 33.9054 121.086 33.9054 121.038 33.9426L119.724 34.9484C119.618 35.0295 119.474 34.9199 119.514 34.7885L120.015 33.1625C120.034 33.1034 120.015 33.0376 119.965 33.0026L118.652 31.9968C118.545 31.9157 118.6 31.7382 118.731 31.7382H120.355C120.413 31.7382 120.465 31.6988 120.484 31.6396L120.986 30.0136C121.027 29.8822 121.204 29.8822 121.244 30.0136H121.25Z" fill="#263238"/>
<path d="M114.133 34.0235L114.434 34.9991C114.445 35.0346 114.477 35.0582 114.512 35.0582H115.486C115.565 35.0582 115.598 35.1647 115.533 35.2134L114.745 35.8169C114.716 35.8392 114.704 35.8774 114.715 35.9129L115.016 36.8884C115.041 36.9673 114.955 37.033 114.89 36.9844L114.102 36.3809C114.073 36.3586 114.034 36.3586 114.006 36.3809L113.217 36.9844C113.154 37.033 113.067 36.9673 113.091 36.8884L113.392 35.9129C113.403 35.8774 113.392 35.8379 113.362 35.8169L112.574 35.2134C112.51 35.1647 112.543 35.0582 112.621 35.0582H113.596C113.631 35.0582 113.662 35.0346 113.673 34.9991L113.974 34.0235C113.999 33.9446 114.106 33.9446 114.129 34.0235H114.133Z" fill="#263238"/>
<path d="M123.216 44.1456L123.517 45.1212C123.528 45.1567 123.559 45.1803 123.594 45.1803H124.569C124.647 45.1803 124.681 45.2868 124.616 45.3355L123.828 45.9389C123.799 45.9613 123.787 45.9994 123.798 46.0349L124.099 47.0105C124.124 47.0894 124.038 47.1551 123.973 47.1065L123.185 46.503C123.156 46.4806 123.117 46.4806 123.088 46.503L122.3 47.1065C122.236 47.1551 122.15 47.0894 122.174 47.0105L122.475 46.0349C122.486 45.9994 122.475 45.96 122.445 45.9389L121.657 45.3355C121.593 45.2868 121.625 45.1803 121.704 45.1803H122.679C122.714 45.1803 122.745 45.1567 122.756 45.1212L123.057 44.1456C123.082 44.0667 123.188 44.0667 123.212 44.1456H123.216Z" fill="#263238"/>
<defs>
<clipPath id="clip0_70_3">
<rect width="19.1747" height="18.2202" fill="white" transform="translate(109.513 31.231)"/>
</clipPath>
</defs>
</svg>
